<svg version="1" xmlns="http://www.w3.org/2000/svg" width="752" height="752" viewBox="0 0 564.000000 564.000000"><path d="M338.8 7.6c-3.8 2-5.5 5.9-5.6 12.1 0 2.9-.1 9.1-.1 13.7-.1 8.1-.2 8.4-2.7 9-1.4.4-6.6 2.4-11.6 4.6l-9 3.9-9.2-9.1c-8.8-8.7-12.8-11.6-15.3-11.2-.7.1-2.3.2-3.4.3-1.4.1-10.8 8.7-25.5 23.3L233 77.5l-12.9.1c-23 .2-23.3.6-23.5 24.9-.1 8.8-.3 15.9-.6 15.7-.3-.1-2.7.4-5.5 1.3-11.2 3.4-10.1 4.1-18.5-10.9-8-14.4-10.7-17-16.7-16.8-1.9.1-4.7 1.1-6.3 2.2-1.5 1.1-3 2-3.3 2-.3 0-4.5 2.3-9.4 5.1-26.6 15.5-35.2 20.4-38.5 22.2-6.1 3.3-9.2 7.1-9.2 11.5 0 3 1.7 6.8 7.7 17.2 4.2 7.3 7.7 13.6 7.7 13.9 0 .4-2.7 3.3-5.9 6.5l-6 5.9-13.2-7.8c-7.2-4.2-14.6-7.9-16.4-8-3.9-.4-8.9 1.9-10.4 4.8-.6 1.2-1.5 2.9-2.1 3.7-1 1.5-12.7 21.8-16.2 28-1.1 1.9-3.4 6-5.1 9-1.7 3-3.3 5.7-3.6 6-.3.3-2.1 3.4-4 6.8-3.7 7.1-3.9 12.4-.5 16 1.7 1.7 18.9 12.2 20 12.2.3 0 2.2 1.2 4.3 2.6l3.9 2.6-1.3 4.1c-.8 2.3-1.9 6-2.4 8.2l-1.1 4-15.2-.1c-17.1-.1-20.8.8-23.4 5.8-2.3 4.5-2.3 71.2 0 75.7 2.6 5 4.6 5.5 22.5 5.6l16.5.1 1.3 5.5c.7 3 1.5 6.2 1.8 7.2.2.9.6 2.1 1 2.7.3.5-3.8 3.5-9.2 6.6-16.6 9.7-18.3 10.8-20.1 13.9-1.3 2.1-1.6 4-1.1 6.2.3 1.7 7.3 14.8 15.5 28.9 8.2 14.2 15.5 27.1 16.3 28.6 2.2 4.4 6 7.7 9.9 8.4 4 .8 3.7.9 22.6-10l10-5.7 5.9 5.9c6.8 6.9 7 4.8-1.9 20.2-6.9 11.9-8.4 15.3-7.9 18.1.9 4.5 2.7 6.6 9.3 10.5 3.7 2.1 6.9 4.2 7 4.6.2.4.8.8 1.4.8.5 0 5.1 2.4 10.1 5.4 5.1 2.9 10.8 6.3 12.7 7.4 25.4 14.5 26.2 14.9 31 12.8 3.5-1.5 5.3-4 15-21.3 2.3-4 4.5-7.5 5-7.8.5-.3 2.9 0 5.2.6 2.4.7 4.9 1.4 5.7 1.5 6.1 1.1 5.7-.2 5.8 17.7 0 13.6.3 16.8 1.7 18.9 3.4 5.2 4.6 5.3 42.4 5.2 45.7-.1 43.3 1.3 43.3-24.3V510l2.7-.6c1.5-.3 4.5-1.1 6.7-1.8 5.2-1.6 7.6-1.5 8.6.4 5.4 10.1 14.5 24.8 16.1 26.2 4.7 4 8.7 2.9 27.9-8.2 9.6-5.5 18.1-10.4 18.9-11 .8-.5 5.7-3.3 10.9-6.2 19.1-10.8 19.8-12.7 10-29.8-3.5-6.2-7.1-12.5-8-14.1l-1.6-2.9 6-5.9 5.9-6 3.7 1.9c2 1 8.3 4.6 14 7.9 8.9 5.1 11 6 14.4 5.6 4.4-.4 7.6-2.9 10.3-8.3 1.1-2 2.3-4.1 2.7-4.7 3.5-4.4 29-50.5 29.4-53.1 1-6.4-1.2-8.4-23.1-20.7-7.8-4.4-7.6-3.8-5.4-12.5 1.1-4.2 2.2-7.9 2.4-8.1.2-.3 7.5-.5 16.2-.6 8.6-.1 16.6-.5 17.7-.8 4.5-1.6 5.9-5.4 6.2-17.1l.2-11 24.5-24.6c13.4-13.5 24.8-25.4 25.3-26.5.5-1.1.8-3 .7-4.3-.1-1.2-.2-2.8-.3-3.6 0-.7-4.6-5.9-10.2-11.5-8.3-8.4-9.8-10.5-8.9-11.7.7-.7.9-1.4.4-1.4s-.4-.4.2-.8c1.2-.8 7.4-15.7 7.4-17.8 0-1.4.5-1.5 20.5-1.5 8.9-.1 14.2-2.8 15.3-7.8.2-.9.4-17.1.5-36.1.3-46.1 1.1-44.5-21.8-44.3l-13.4.1-3.2-8.2c-1.8-4.4-4-9.7-5-11.7l-1.8-3.6 9.1-8.9c4.9-4.9 9.6-10.3 10.4-12.1 2.8-6.5 1.9-7.7-25.4-35.1-32.3-32.3-30.7-31.8-46.5-16.1l-9.9 9.8-3.7-1.6c-2-.9-7.2-3.1-11.6-4.9l-8-3.2V27.7C421.4 4.9 423.7 6 377.3 6c-29.7.1-36.3.3-38.5 1.6zm60 20.9c.3.3.6 5.8.7 12.3.1 7.1.6 12.7 1.4 14.3 1.4 2.8 6 5.7 10.4 6.5 5.4.9 20.2 7.1 27.5 11.4 4.1 2.5 8.4 3.3 11.6 2.1 1.3-.6 6.1-4.6 10.5-9.1 4.4-4.4 8.4-8 8.9-8s7.7 6.8 16.1 15.2l15.2 15.2-4.8 4.6c-11.9 11.6-14.1 14.5-13.8 18.3.2 1.9 2 6.6 3.9 10.4 4.9 9.5 6.9 14.5 10 24.2 1.5 4.6 3.2 8.9 3.9 9.5 2.8 2.7 6.8 3.4 18 3.2 7.2 0 11.7.3 11.8.9.1 1.3.1 36.2 0 40.2l-.1 3.1-12.2.1c-16.8.2-17.2.5-21.9 14.4-1.9 5.9-5.7 15-8.2 20.1-2.6 5.1-4.9 10.2-5.2 11.5-.7 3.9 1.4 7.2 10 16l8.5 8.5-11.7 11.7c-6.5 6.5-11.9 11.6-12.1 11.4-.2-.2-.4-4.3-.4-9.1-.1-9.6-.9-12.1-4.7-14.9-2.2-1.6-4.5-1.9-18.8-2-8.9-.1-16.5-.4-16.8-.7-.3-.3-.7-1.4-.9-2.4-.2-1.1-1.1-4.6-2-7.9-.8-3.2-1.4-5.9-1.3-6 .1 0 1.3-.6 2.7-1.4 1.4-.8 6.1-3.5 10.5-6s8.2-4.8 8.5-5.2c.3-.3 1.4-.9 2.5-1.3 3.4-1.1 6.6-6.8 6.1-11-.5-3.2-2.5-8-4.9-11.1-1-1.3-15.7-26.7-15.7-27.1 0-.2-1.5-2.7-3.3-5.6-1.8-2.9-4.4-7.5-5.7-10.1-1.4-2.7-3.9-6.5-5.6-8.5-4.5-5.3-9.3-5.1-19.4.7-4.1 2.4-9.5 5.5-12 6.9-2.5 1.4-5.2 2.9-6 3.5-1.2.7-3-.5-7.6-5.2l-6.1-6.1 6.5-11.2c3.5-6.2 6.8-11.8 7.2-12.3.5-.6 1.3-3 1.8-5.3 1.6-7.1-.2-8.7-27.1-24.3-13.1-7.5-24.5-14.3-25.3-14.9-.7-.7-1.4-.9-1.4-.5 0 .5-.8.1-1.7-.7-3.1-2.7-9.7-5.5-12.1-5.2-5.3.9-7.9 3.3-13.1 12.6-9.7 17.3-9.8 17.3-12.3 17.2-1.2-.1-3.4-.5-4.8-.9s-3.8-.9-5.5-1.2c-1.6-.3-3.3-1.1-3.7-1.7-.4-.6-.7-7.7-.7-15.9-.1-16.1-.7-18.6-5.3-22.1-2.1-1.5-4.2-1.9-8.3-1.8-3 0-5.5-.1-5.5-.4 0-.3 4.5-5 9.9-10.4l9.9-9.9 8.3 8.4c8.1 8.3 12.4 10.9 16.4 10.1 1.1-.2 6.5-2.7 12-5.4 5.5-2.8 14.1-6.3 19-7.8 5.9-1.8 9.9-3.7 11.8-5.5 2.9-2.9 2.8-2.6 2.9-19.9.1-8.3.2-8.5 2.6-9 3.4-.7 40.3-.2 41 .5zM260.3 99.9c1.5.1 1.7 1.5 1.7 15.5 0 14.1.2 15.5 2.1 18 2.3 2.9 5.8 4.7 9.9 5.2 1.4.1 5.4 1 9 1.9l8 2c.8.2 4.2 1.3 7.5 2.5 6.2 2.2 10.5 2.1 13.7-.3 1.6-1.2 13.8-21.1 13.8-22.5 0-.4.7-1.5 1.4-2.5 1.4-1.8 1.6-1.7 6.3.8 10.6 6 32.3 18.7 32.3 19 0 .2-3.4 6.1-7.5 13.2-9.4 16-9.6 18.4-1.5 25.9 6.5 6 16.2 15.7 19.5 19.6 5.5 6.4 11.2 6.5 20.5.4 2.2-1.4 4.2-2.6 4.4-2.6.3 0 3.2-1.6 6.5-3.6s6.5-3.4 7-3.2c.6.1 5.7 8.4 11.5 18.3l10.3 18-6.1 3.7c-3.3 2-8.5 4.9-11.3 6.4-2.9 1.5-6.4 3.8-7.9 5-2.9 2.6-4.8 8.6-3.1 10.3.6.6.8 1.1.4 1.1-.3 0 .1 1.9.9 4.2.9 2.4 1.7 5 1.9 5.8.2.8 1.4 5.5 2.5 10.5 4.8 20.1 4.6 19.9 25.2 20l15.3.1v42.9l-15.6.1c-15.5 0-15.5 0-18.6 2.8-1.7 1.5-3.4 4.2-3.7 5.9-1.3 7-1.6 8.3-3.5 15.6-1.1 4.2-2.8 10.1-3.9 13.1-1 3-1.7 5.9-1.7 6.5.7 4.8 2.2 7 7.1 10.1 2.9 1.9 5.8 3.4 6.4 3.4.5 0 1 .3 1 .8 0 .4 1.3 1.3 2.8 1.9 1.5.7 4.9 2.7 7.6 4.3 3.9 2.5 4.6 3.3 3.6 4.5-1.3 1.6-8 12.5-8 13.1 0 .3-9 15.8-11.6 20.1L415 440l-4-2.5c-2.2-1.4-4.4-2.5-5-2.5-.5 0-1-.5-1-1 0-.6-.4-1-.9-1s-4-1.8-7.9-4c-9.6-5.6-15.4-5.2-20.2 1.4-2.1 3.1-21.1 21.6-22 21.6-1 0-3 5.6-3 8.4 0 1.2 3.4 8 7.5 15 4.2 7.1 7.2 13.3 6.8 13.7-.5.4-8.6 5.2-18.2 10.8-15.4 8.9-20.1 10.7-20.1 8.1 0-.5-3-6-6.6-12.3-8.8-15.2-10.7-16.2-23.6-12.1-4.4 1.4-8.9 2.7-9.9 3-1.1.2-2.8.6-3.9.9-1.1.3-2.9.7-4.1 1-1.1.2-2.8.6-3.7.9-.9.3-3 .8-4.6 1-1.7.3-4.1 1.7-5.5 3.1-2.5 2.5-2.6 3-3.1 18.7l-.5 16.2h-20.8c-11.5.1-21.1-.3-21.4-.8-.3-.5-.5-6.9-.5-14.3.2-18.7-1.7-22.2-12.5-23.9-5.5-.8-21.4-5.1-25.7-6.9-3.9-1.7-7.8-1.5-11.4.4-1.2.6-5.3 6.8-9.3 13.6-4 6.9-7.6 12.8-8 13-.7.5-34.3-18.5-36.2-20.4-.5-.5 1.8-5.6 6.3-13.3 7.1-12.2 8.6-16.6 6.8-20.2-.6-1-7.5-8.3-15.4-16.2C99.6 425.7 98.8 425 95 425c-2.6 0-5.5.9-8 2.5-2.2 1.4-4.2 2.5-4.6 2.5-.3 0-1.8.8-3.2 1.9-1.5 1-5.2 3.2-8.3 4.9l-5.6 3.1-5.1-9.1c-2.9-4.9-5.2-9.4-5.2-9.9s-.4-.9-1-.9c-.5 0-1-.4-1-1 0-.5-2-4.3-4.4-8.4-5.2-8.8-6-7.5 10-16.6 14.3-8.1 16.8-12.1 13-21.2-2.2-5.2-6.3-20.5-7-26.4-1.2-9-5.6-10.9-24.4-10.9-14.7.1-15 0-14.2-4 .1-.5.1-9.5 0-20l-.1-19h13.8c7.6.1 15.1-.2 16.7-.7 4.5-1.2 7.1-4.6 8.2-10.8 1.2-6.1 4.5-19 6.4-24.4 2.8-8.2 2.6-10.9-1.1-15.1-1.7-1.9-3.5-3.5-4-3.5-.4 0-4.2-2-8.2-4.5-4.1-2.5-7.8-4.5-8.2-4.5-.4 0-1.8-.8-3.1-1.9l-2.3-1.8 3.4-5.8c1.9-3.2 3.5-5.9 3.5-6 0-.6 13.3-23.1 14.1-24 .7-.6 2.1-.3 4.2.9 1.8 1 5.2 3 7.6 4.4 2.5 1.4 6.6 3.7 9.2 5.3 4.7 2.7 6.4 3.2 10.6 3 1.5-.1 7.4-5.3 17.3-15.1 8.2-8.2 15-15.3 15.1-15.7 0-.5.2-1.7.4-2.8.5-2.6-1.9-7.8-9.2-20.1-5.9-9.9-6-10.2-3.9-11.3 2.1-1 3.4-1.8 21.1-12.1 15.9-9.2 13.7-9.1 18.9-.5 2.5 4.2 4.6 7.8 4.6 8.1 0 .3 1.6 2.9 3.5 5.9 4.8 7.5 8.6 8.6 18.1 5.4 3.8-1.2 12.5-3.6 19.3-5.3 16.8-4.2 16.5-3.8 16.9-23.9.1-8.3.6-15.3 1.1-15.6.7-.5 31.9-.6 40.4-.2z"/><path d="M222 151.6c-25.8 3.4-46.5 11-68.5 25.2-3.8 2.4-7.2 4.7-7.5 5.1-.3.3-2.3 1.9-4.5 3.5-5.3 4-24.7 23.4-27.6 27.8-1.3 2-4.3 6.3-6.6 9.6-12.4 17.6-23.1 45.6-25.9 67.4-1.1 9.1-1.6 14.5-1.4 16.3 0 1.1.1 2.7.1 3.5-.2 4.1.1 13.9.4 17 .8 7.8 1.6 13.6 2 15 .2.8.6 2.6.9 4 1.9 11.3 6.8 25.2 13.6 39.1 4.4 9 13.4 23.5 16.6 26.6.8.8 1.4 1.8 1.4 2.2 0 1.6 20 21.2 27.5 27 4.4 3.4 8.5 6.6 9.2 7.1.7.6 1.5 1 1.8 1 .4 0 2.7 1.4 5.2 3.1 9.3 6.4 34.8 17 46.9 19.4 22.7 4.6 44.5 5.2 64.4 1.9 11.7-2 38.6-10.4 40.1-12.7.3-.5.9-.8 1.3-.8 1 .2 12.1-5.6 18.4-9.6 13.5-8.6 26-19.4 36.2-31.3 1.2-1.4 2.9-3.4 3.8-4.5 4-4.7 11.3-15.6 15.6-23.4 17.4-31.6 23.6-67.2 18-104.6-.5-3.6-1.6-8.5-4.4-19.5-2.9-11.4-12-30.8-20.6-43.8-3.2-4.8-6-8.9-6.3-9.2-.3-.3-2.2-2.5-4.2-5-20.7-25.6-53.6-46.3-85.9-54-7-1.7-8.5-2-12-2.5-2-.3-4.7-.8-6-1.1-5.3-1.1-32.9-1-42 .2zm39.8 31.8c.5.3 2.4.8 4.3 1 17 2.3 38.2 11.7 56.4 25 12.9 9.4 30.3 30.9 37.8 46.6 3.9 8.1 9.2 23.4 10.2 29 .3 1.9.8 4.2 1 5 2.1 7.7 2.2 38.9.1 45.1-.3.8-.7 2.7-1 4.4-2.6 16.4-12.9 38.4-25.5 54.5-15.3 19.6-44.4 39.2-66.1 44.4-.8.2-3.3.9-5.5 1.4-15.3 4-38.2 4.7-55 1.6-2.5-.4-7.2-1.8-21.9-6.2-8-2.3-30.4-15.6-38.4-22.6-21.2-18.6-35.8-42.5-42.7-69.4-2.3-9.1-3-16.1-3-30.7 0-14.1.8-22 3-29 .7-2.5 1.2-4.5 1-4.5-1.6 0 12.1-32 14.5-34 .3-.3 1.7-2.3 3-4.4 7-11.5 22.8-27.5 36.2-36.4 4.8-3.3 19.1-10.8 24.3-12.9 2.7-1 10.3-3.6 11.5-3.8.3-.1 2.4-.7 4.8-1.4 8.5-2.4 22.9-3.8 36.4-3.5 7.6.1 14.2.5 14.6.8z"/><path d="M241.8 212.6c-9.8 9.3-10.6 10.3-20.3 23-3.3 4.4-6.2 8.1-6.5 8.4-.3.3-1 1.4-1.7 2.5s-4.1 6.7-7.6 12.5c-21.7 35.3-33.3 69.6-30.6 90.5 1.6 12.6 4.9 21.6 11.2 30.9 15.7 23.2 42.4 34.7 69.2 30 27.5-4.9 48.7-24.4 55.6-51.2 3.7-14.6 2.6-26.9-3.8-40.1-2.3-4.9-11.3-19.8-13.6-22.6-.7-.8-4.4-6-12.5-17.4-.9-1.2-3.1-4.2-4.8-6.5-3-4-6.9-9.9-10.6-16.1-4.1-6.7-9.7-19.4-11.2-25-.8-3.3-1.8-10.7-2.1-16.4-.3-5.8-.7-10.7-1-10.9-.2-.3-4.6 3.5-9.7 8.4zm-1.3 33.1c2 8.3 12.2 25.1 31.9 52.3 19.2 26.8 23.7 36.5 22.5 49-3.3 31.9-34.3 53-65.1 44.2-21.5-6.1-37-26.5-36.9-48.6 0-5.3.6-9.9 2.5-18.1 2.1-9.4 13.3-34.9 22.2-50.5 6.8-12 20-31 21.5-31 .4 0 1 1.2 1.4 2.7z"/><path d="M212 314.1c-5.3 8.3-7.4 15.5-7.3 25.9.1 6.6.6 9.8 2.4 14 6.2 14.8 18.4 24.4 32.1 25.5 6.1.5 6.5-.4 1.6-2.8-6.5-3.2-16-13.4-19.9-21.2-1.8-3.8-3.4-7.3-3.6-7.9-1.4-6.1-1.7-9.4-1.6-17.1 0-9.2 1-20.3 1.9-21.7.3-.4 0-.8-.6-.8s-2.8 2.7-5 6.1z"/></svg>